<svg xmlns="http://www.w3.org/2000/svg" xmlns:xlink="http://www.w3.org/1999/xlink" width="986.132" height="394.624" viewBox="0 0 986.132 394.624">
  <defs>
    <linearGradient id="linear-gradient" x1="0.036" y1="0.5" x2="1.138" y2="0.689" gradientUnits="objectBoundingBox">
      <stop offset="0" stop-color="#ff812b"/>
      <stop offset="1" stop-color="#ffc10f"/>
    </linearGradient>
  </defs>
  <g id="header-logo" transform="translate(-126.9 -310)">
    <path id="Path_1" data-name="Path 1" d="M185,310a57.957,57.957,0,0,0-58.1,58.1V556.9A57.957,57.957,0,0,0,185,615H726.2a57.957,57.957,0,0,0,58.1-58.1V514.1q-4.05-2.1-8.1-4.5c-10.6-6.6-19.1-14.5-24.7-22.5-1,.1-2,.2-2.9.2a22.645,22.645,0,1,1,9.8-2.3,81.859,81.859,0,0,0,21.4,18.8c1.5,1,3.1,1.8,4.6,2.7V368.2a57.957,57.957,0,0,0-58.1-58.1H185Z" fill="#fff"/>
    <path id="Subtraction_1" data-name="Subtraction 1" d="M-101.182,134.531h0A33.479,33.479,0,0,1-110.5,133.2L-346.4,64.5a33.131,33.131,0,0,1-15.787-10.213A33.3,33.3,0,0,1-369.8,37.7a51.621,51.621,0,0,0,10.5,2.1,45.8,45.8,0,0,0,4.794.261c5.612,0,10.3-1.116,13.944-3.318a9.619,9.619,0,0,0,8.16,4.406,8.376,8.376,0,0,0,8.3-6.449,8.257,8.257,0,0,0-1.126-7.627,9.783,9.783,0,0,0-7.768-3.751,8.256,8.256,0,0,0-7.408,4.22l-.126-.027-.072-.016a1.385,1.385,0,0,0-.092.255A.553.553,0,0,1-340.8,28c-2.178,3.486-7.056,5.406-13.735,5.407-1.261,0-2.6-.069-3.965-.206a60.707,60.707,0,0,1-11.6-2.5,30.246,30.246,0,0,1,1.2-7.2l11.6-39.7a32.854,32.854,0,0,1,4.606-9.723,32.645,32.645,0,0,1,7.194-7.464,32.927,32.927,0,0,1,9.069-4.82A32.743,32.743,0,0,1-326.2-40a37.639,37.639,0,0,1,9.9,1.3L-80.4,30a32.9,32.9,0,0,1,11.658,6.083,32.76,32.76,0,0,1,8.1,9.73,32.892,32.892,0,0,1,3.848,12.073A33.156,33.156,0,0,1-57.9,71l-11.6,39.7a33.083,33.083,0,0,1-4.706,9.837,32.759,32.759,0,0,1-7.334,7.513,33.014,33.014,0,0,1-9.235,4.8A32.929,32.929,0,0,1-101.182,134.531Z" transform="translate(1169.6 482.4)" fill="#ffc10f"/>
    <path id="Path_4" data-name="Path 4" d="M899.4,522.5a18.572,18.572,0,0,1-14.4,1.1c-9.1-2.7-15-10.9-11.7-22.1,3-10.3,12.3-15.4,22.1-12.5a18.832,18.832,0,0,1,10.5,8.1l12-7c-4.6-8.2-10.4-12.5-18.8-14.9-17.1-5-34.4,1.2-40.5,22.1-6.1,21,5.1,35.4,22.3,40.4,8.7,2.6,16.7,2,25.5-2.7Z" transform="translate(-4 1)" fill="#ff812b"/>
    <path id="Path_5" data-name="Path 5" d="M953.4,505.8c9.8,2.9,13.5,13.3,10.9,22.1-2.6,9-10.4,15.8-21.1,12.7s-13.6-13.1-11-22C934.9,509.8,942.9,502.8,953.4,505.8Zm3.8-13.3c-18.8-5.5-34.6,5-39.5,21.9-4.9,17,2.5,34.1,21.7,39.7s34.8-4.8,39.7-21.8C984,515.4,976,498,957.2,492.5Z" transform="translate(-4 1)" fill="#ff812b"/>
    <path id="Path_6" data-name="Path 6" d="M1034.5,580.4l9.2-31.6c2.3-7.8,9.2-13.2,17.1-10.9s9.2,9.8,7,17.6l-9.3,31.8,14.6,4.3,9.3-31.8c5.2-17.7-.1-30.4-16.9-35.3-7.7-2.2-15.2-1.8-22.9,5-1-9.1-7.2-14.1-14.3-16.1-5.6-1.6-13.1-1.5-17.9,3.6l1-7.5-13.5-3.9-17.2,59.2,14.6,4.3,9.2-31.6c2.3-7.8,9-13.5,16.9-11.2,8,2.3,10,10.6,7.8,18.4l-9.2,31.6Z" transform="translate(-4 1)" fill="#ff812b"/>
    <path id="Path_7" data-name="Path 7" d="M762.8,455.7c-7.1.5-13.1,3.1-16.4,8.4-4.4,7-2.3,16.3,3.2,25.1s14.7,17.7,26.4,25,23.7,11.6,34.1,12.7c10.3,1,19.5-1.2,23.9-8.2,2.5-4.1,2.9-8.9,1.7-13.9l-5.6,5.2a10.321,10.321,0,0,1-1.4,5.4c-2.6,4.1-8.8,6.2-17.9,5.3s-20.4-4.9-31.4-11.7-19.6-15.3-24.4-23c-4.8-7.8-5.7-14.3-3.1-18.4,2.5-4.1,8.8-6.2,17.9-5.3s20.4,4.9,31.4,11.7c1.7,1,3.2,2.2,4.8,3.3l1.9-6.4c-1.1-.7-2.1-1.6-3.3-2.3-11.7-7.3-23.7-11.6-34.1-12.7A33.608,33.608,0,0,0,762.8,455.7Z" fill="#fff"/>
    <path id="Union_1" data-name="Union 1" d="M-205.5,115.9c-10.9-8.1-16.3-21.2-16.3-39.3,0-16.9,4.8-29,14.5-36.3,10.1-7.3,22.8-12.1,38.1-14.5a54.523,54.523,0,0,0,7.3-.6,60.133,60.133,0,0,1,9.7-1.8c17.7-2.4,26.6-7.7,26.6-15.7,0-6-3.2-9.9-9.7-11.5a53.9,53.9,0,0,0-16.9-3,44.3,44.3,0,0,0-15.1,2.4A16.4,16.4,0,0,0-177,4.7h-40.5a46.545,46.545,0,0,1,16.9-30.8q16.35-13.95,46.5-13.9,33.9,0,50.8,11.5C-91.6-20.4-85.8-9.2-85.8,5.3v55c0,16.1-3,28.8-9.1,38.1-5.6,8.8-12.4,15.3-20.5,19.3a73.052,73.052,0,0,1-27.2,7.9,195.39,195.39,0,0,1-24.8,1.8C-181.9,127.4-194.6,123.6-205.5,115.9Zm56.8-64.6c-9.3,2-13.9,3-13.9,3-7.3,2-12.5,4.6-15.7,7.9a24.74,24.74,0,0,0-4.2,13.3c0,6,1.8,10.9,5.4,14.5,3.6,3.2,8.9,4.8,15.7,4.8,11.3,0,20.1-3.2,26.6-9.7s9.7-15.3,9.7-26.6V43.4C-130.7,46.2-138.6,48.8-148.7,51.3Zm-203.8,62.2C-364.2,104.2-370,90.7-370,73V71.2h41c.4,8.1,3.4,14.1,9.1,18.1,6,4,14.1,6,24.2,6,7.3,0,13.5-1.4,18.7-4.2,4.8-2.8,7.3-6.6,7.3-11.5,0-7.3-8.5-12.7-25.4-16.3a113.369,113.369,0,0,1-16.3-3.6c-21.4-5.2-35.7-11.5-42.9-18.7-8.1-7.3-12.1-16.9-12.1-29,0-15.3,5.8-28,17.5-38.1Q-330.75-40.05-301.8-40c20.9,0,37.7,4.6,50.2,13.9,11.7,10.1,17.9,23.2,18.7,39.3h-26c-7.7,0-13.5-3.4-17.5-10.3l-4.8-4.8c-4.8-3.6-11.5-5.4-19.9-5.4-8.1,0-14.1,1.2-18.1,3.6-3.6,2.4-5.4,6.1-5.4,10.9,0,6.4,10.5,11.9,31.4,16.3q3.6,1.2,6,1.8a27.769,27.769,0,0,0,5.4.6c20.5,5.2,34.9,11.3,42.9,18.1,7.7,7.3,11.5,16.9,11.5,29,0,17.7-6.5,31.4-19.3,41.1q-18.149,13.35-54.4,13.3Q-335.6,127.4-352.5,113.5ZM56.3,124.4,31.5,9.6,6.7,124.4H-35.6L-79.7-36.4h41.1L-13.2,74.8,9.8-36.4H52.7L74.5,74.8,96.9-21.9c2.4-9.7,8.9-14.5,19.3-14.5h26.6L98.6,124.4ZM-370.1,71.2h.1Z" transform="translate(562.1 421.7)" fill="url(#linear-gradient)"/>
    <path id="Path_11" data-name="Path 11" d="M414.8,658.8H396.5l-9,44.6h18.3c7.6,0,16.7-2.5,18.6-11.6,1-5.2-1.3-9.7-6.5-11.2a13.007,13.007,0,0,0,9.2-9.5C428.7,662.5,422.3,658.8,414.8,658.8Zm-15.5,2.9h14.8c5.6,0,10.8,2.8,9.6,9.2-1.3,6.4-7.2,8-12.6,8H395.8Zm-4.1,20.5h15.3c6,0,11.9,2.5,10.5,9.5-1.4,7.1-8.9,8.4-14.5,8.4H391.6Z" fill="#fff"/>
    <path id="Path_12" data-name="Path 12" d="M414.8,658.8H396.5l-9,44.6h18.3c7.6,0,16.7-2.5,18.6-11.6,1-5.2-1.3-9.7-6.5-11.2a13.007,13.007,0,0,0,9.2-9.5C428.7,662.5,422.3,658.8,414.8,658.8Zm-15.5,2.9h14.8c5.6,0,10.8,2.8,9.6,9.2-1.3,6.4-7.2,8-12.6,8H395.8Zm-4.1,20.5h15.3c6,0,11.9,2.5,10.5,9.5-1.4,7.1-8.9,8.4-14.5,8.4H391.6Z" fill="#fff" stroke="#fff" stroke-width="0.648"/>
    <path id="Path_13" data-name="Path 13" d="M459.5,662.1l27.4.1.7-3.3H456.8l-9,44.6h31.6l.6-3.3H451.8l3.6-17.6h26.2l.5-3.1-26.1-.1Z" fill="#fff"/>
    <path id="Path_14" data-name="Path 14" d="M459.5,662.1l27.4.1.7-3.3H456.8l-9,44.6h31.6l.6-3.3H451.8l3.6-17.6h26.2l.5-3.1-26.1-.1Z" fill="#fff" stroke="#fff" stroke-width="0.648"/>
    <path id="Path_15" data-name="Path 15" d="M578.9,666c-3.1-6.6-8.4-7.6-14.8-7.6-7.3,0-17.7,2.9-19.5,12.3-1.7,8.2,6.4,9.9,14.2,11.5,7.1,1.4,14.1,2.9,12.7,9.6-1.6,7.9-10.6,9.4-16.1,9.4s-12-2.7-13.6-8.1l-3.4,1.5c2.1,6.8,9.4,9.7,16.4,9.7,7.5,0,18-2.4,20.2-12.5,1.9-9.6-6.7-11.2-15-12.8-7.2-1.4-13.1-2.8-11.9-8.4,1.4-7.1,10.1-9,15.3-9,5,.1,10.1.8,12.3,6.1Z" fill="#fff"/>
    <path id="Path_16" data-name="Path 16" d="M578.9,666c-3.1-6.6-8.4-7.6-14.8-7.6-7.3,0-17.7,2.9-19.5,12.3-1.7,8.2,6.4,9.9,14.2,11.5,7.1,1.4,14.1,2.9,12.7,9.6-1.6,7.9-10.6,9.4-16.1,9.4s-12-2.7-13.6-8.1l-3.4,1.5c2.1,6.8,9.4,9.7,16.4,9.7,7.5,0,18-2.4,20.2-12.5,1.9-9.6-6.7-11.2-15-12.8-7.2-1.4-13.1-2.8-11.9-8.4,1.4-7.1,10.1-9,15.3-9,5,.1,10.1.8,12.3,6.1Z" fill="#fff" stroke="#fff" stroke-width="0.648"/>
    <path id="Path_17" data-name="Path 17" d="M609.2,662.3l27.4.1.6-3.3H606.5l-9,44.6H629l.7-3.3H601.5l3.6-17.6h26.1l.6-3.1-26.1-.1Z" fill="#fff"/>
    <path id="Path_18" data-name="Path 18" d="M609.2,662.3l27.4.1.6-3.3H606.5l-9,44.6H629l.7-3.3H601.5l3.6-17.6h26.1l.6-3.1-26.1-.1Z" fill="#fff" stroke="#fff" stroke-width="0.648"/>
    <path id="Path_19" data-name="Path 19" d="M665.8,662.4h27.5l.6-3.2-30.8-.1-9,44.7h31.6l.6-3.3-28.2-.1,3.6-17.5h26.2l.5-3.1-26.1-.1Z" fill="#fff"/>
    <path id="Path_20" data-name="Path 20" d="M665.8,662.4h27.5l.6-3.2-30.8-.1-9,44.7h31.6l.6-3.3-28.2-.1,3.6-17.5h26.2l.5-3.1-26.1-.1Z" fill="#fff" stroke="#fff" stroke-width="0.648"/>
    <path id="Path_21" data-name="Path 21" d="M719.8,659.2l-9,44.6h3.5l7.4-36.8,22.7,36.9h1.3l9-44.6h-3.4l-7.4,36.9-22.6-37Z" fill="#fff"/>
    <path id="Path_22" data-name="Path 22" d="M719.8,659.2l-9,44.6h3.5l7.4-36.8,22.7,36.9h1.3l9-44.6h-3.4l-7.4,36.9-22.6-37Z" fill="#fff" stroke="#fff" stroke-width="0.648"/>
    <rect id="Rectangle_10" data-name="Rectangle 10" width="13" height="33.4" transform="translate(771.2 446.9)" fill="#fff"/>
  </g>
</svg>
