<?xml version="1.0" encoding="UTF-8"?>
<svg width="18px" height="18px" viewBox="0 0 18 18" version="1.1" xmlns="http://www.w3.org/2000/svg" xmlns:xlink="http://www.w3.org/1999/xlink">
    <title>E2FE87F6-27C7-432D-9B86-3BDF79DC6D30</title>
    <defs>
        <filter id="filter-1">
            <feColorMatrix in="SourceGraphic" type="matrix" values="0 0 0 0 0.207843 0 0 0 0 0.200000 0 0 0 0 0.188235 0 0 0 1.000000 0"></feColorMatrix>
        </filter>
    </defs>
    <g id="Page-1" stroke="none" stroke-width="1" fill="none" fill-rule="evenodd">
        <g id="About-Us" transform="translate(-860.000000, -837.000000)">
            <g id="Group-6" transform="translate(0.000000, 553.000000)">
                <g id="Group-5" transform="translate(115.000000, 42.000000)">
                    <g id="Group-15" transform="translate(599.000000, 0.000000)">
                        <g id="2111532" transform="translate(0.000000, 155.000000)" filter="url(#filter-1)">
                            <g transform="translate(146.000000, 87.000000)">
                                <path d="M17.9955,18 L17.9955,17.99925 L18,17.99925 L18,11.39775 C18,8.16825 17.30475,5.6805 13.52925,5.6805 C11.71425,5.6805 10.49625,6.6765 9.999,7.62075 L9.9465,7.62075 L9.9465,5.982 L6.36675,5.982 L6.36675,17.99925 L10.09425,17.99925 L10.09425,12.04875 C10.09425,10.482 10.39125,8.967 12.3315,8.967 C14.24325,8.967 14.27175,10.755 14.27175,12.14925 L14.27175,18 L17.9955,18 Z" id="Path" fill="#000000" fill-rule="nonzero"></path>
                                <polygon id="Path" fill="#000000" fill-rule="nonzero" points="0.297 5.98275 4.029 5.98275 4.029 18 0.297 18"></polygon>
                                <path d="M2.1615,0 C0.96825,0 0,0.96825 0,2.1615 C0,3.35475 0.96825,4.34325 2.1615,4.34325 C3.35475,4.34325 4.323,3.35475 4.323,2.1615 C4.32225,0.96825 3.354,0 2.1615,0 Z" id="Path" fill="#000000" fill-rule="nonzero"></path>
                            </g>
                        </g>
                    </g>
                </g>
            </g>
        </g>
    </g>
</svg>