<svg xmlns="http://www.w3.org/2000/svg" width="150" height="150" viewBox="0 0 150 150">
  <g id="avatar" transform="translate(-3196 -65)">
    <g id="Group_12" data-name="Group 12">
      <rect id="Rectangle_4" data-name="Rectangle 4" width="150" height="150" transform="translate(3196 65)" fill="none"/>
      <g id="avatar-2" data-name="avatar" transform="translate(3185.927 82)">
        <g id="Group_2" data-name="Group 2" transform="translate(36.073)">
          <path id="Path_7" data-name="Path 7" d="M161.645,62.283h.766c7.013-.12,12.686-2.585,16.875-7.3,9.216-10.389,7.684-28.2,7.516-29.9-.6-12.758-6.63-18.862-11.609-21.711A26.614,26.614,0,0,0,162.315,0h-.407A26.655,26.655,0,0,0,149.03,3.279C144,6.128,137.876,12.232,137.278,25.086c-.168,1.7-1.7,19.508,7.516,29.9C148.959,59.7,154.632,62.164,161.645,62.283Zm-17.977-36.6c0-.072.024-.144.024-.191.79-17.163,12.974-19.006,18.192-19.006h.287c6.463.144,17.45,2.777,18.192,19.006a.467.467,0,0,0,.024.191c.024.168,1.7,16.445-5.912,25.014-3.016,3.4-7.037,5.075-12.327,5.122h-.239c-5.266-.048-9.311-1.723-12.3-5.122C142.017,42.177,143.645,25.828,143.669,25.684Z" transform="translate(-112.903)"/>
          <path id="Path_8" data-name="Path 8" d="M134.388,289.011v-.072c0-.191-.024-.383-.024-.6-.144-4.739-.455-15.822-10.843-19.365-.072-.024-.168-.048-.239-.072a69.067,69.067,0,0,1-19.868-9.048,3.231,3.231,0,0,0-3.71,5.29,74.552,74.552,0,0,0,21.854,9.982c5.577,1.987,6.2,7.947,6.367,13.4a4.806,4.806,0,0,0,.024.6,43.451,43.451,0,0,1-.5,7.4c-3.878,2.2-19.078,9.814-42.2,9.814-23.027,0-38.323-7.636-42.224-9.838a41.133,41.133,0,0,1-.5-7.4c0-.191.024-.383.024-.6.168-5.458.79-11.418,6.367-13.4a75.249,75.249,0,0,0,21.854-9.982,3.231,3.231,0,1,0-3.71-5.29,68.31,68.31,0,0,1-19.868,9.048c-.1.024-.168.048-.239.072-10.389,3.567-10.7,14.649-10.843,19.365a4.808,4.808,0,0,1-.024.6v.072c-.024,1.245-.048,7.636,1.221,10.843a3.071,3.071,0,0,0,1.245,1.508c.718.479,17.929,11.442,46.725,11.442s46.006-10.987,46.725-11.442a3.2,3.2,0,0,0,1.245-1.508C134.435,296.647,134.412,290.256,134.388,289.011Z" transform="translate(-36.073 -197.189)"/>
        </g>
      </g>
    </g>
  </g>
</svg>
