<svg xmlns="http://www.w3.org/2000/svg" width="150" height="150" viewBox="0 0 150 150">
  <g id="certified" transform="translate(-2117 85)">
    <rect id="Rectangle_1" data-name="Rectangle 1" width="150" height="150" transform="translate(2117 -85)" fill="none"/>
    <g id="reward" transform="translate(2087 -91.098)">
      <path id="Path_1" data-name="Path 1" d="M141.486,62.515a23.709,23.709,0,1,0-23.709-23.709A23.708,23.708,0,0,0,141.486,62.515Zm0-44.123a20.414,20.414,0,1,1-20.414,20.414,20.414,20.414,0,0,1,20.414-20.414Z" transform="translate(-50.62 0)"/>
      <path id="Path_2" data-name="Path 2" d="M161.446,221.8l-5.186-3.884,2.988-5.752a1.812,1.812,0,0,0-1.263-2.614l-6.355-1.235.2-6.485a1.812,1.812,0,0,0-2.271-1.812l-6.273,1.643-2.636-5.932a1.812,1.812,0,0,0-2.831-.645l-4.938,4.2-4.412-3.789A21.512,21.512,0,0,0,112.2,188a1.682,1.682,0,0,0-1.327.708,24.785,24.785,0,0,1-40.012,0,1.673,1.673,0,0,0-1.331-.7A21.618,21.618,0,0,0,48,209.574v38.975a1.79,1.79,0,0,0,1.684,1.772H115.29l-5.237,12.653a3.217,3.217,0,0,0,.629,3.467,3.262,3.262,0,0,0,3.439.882l6.351-2.059,2.78,5.693a3.258,3.258,0,0,0,2.96,1.851c.038,0,.077,0,.115,0a3.262,3.262,0,0,0,2.946-2.051l3.71-9.087,3.516,8.592a3.262,3.262,0,0,0,2.946,2.051l.115,0a3.26,3.26,0,0,0,2.96-1.853l2.786-5.7,6.345,2.055a3.3,3.3,0,0,0,4.068-4.4l-6.6-16.037.45.118a1.812,1.812,0,0,0,2.272-1.81l-.2-6.486,6.354-1.235a1.812,1.812,0,0,0,1.263-2.615l-2.99-5.754,5.189-3.9a1.812,1.812,0,0,0,0-2.9ZM51.294,247.026V209.574a18.247,18.247,0,0,1,17.413-18.19,28.14,28.14,0,0,0,44.294,0,18.191,18.191,0,0,1,11.8,5.056l-2.318,5.219-6.271-1.642a1.812,1.812,0,0,0-2.272,1.81l.2,6.486-6.355,1.235a1.812,1.812,0,0,0-1.263,2.615l2.988,5.751-5.186,3.884a1.812,1.812,0,0,0,0,2.9l5.189,3.9-2.988,5.752a1.812,1.812,0,0,0,1.263,2.615l6.355,1.237-.2,6.485a1.812,1.812,0,0,0,2.271,1.81l.679-.116-.241.647Zm74.918,22.482-2.779-5.7a3.315,3.315,0,0,0-3.983-1.693l-6.352,2.048,7.782-18.894,1.6-.419,2.636,5.934a1.812,1.812,0,0,0,2.831.643l.628-.535,2.626,6.417Zm26.452-5.831-6.345-2.055a3.314,3.314,0,0,0-3.982,1.693l-2.789,5.7-8.332-20.362,1.669-1.42,4.938,4.2a1.813,1.813,0,0,0,2.832-.644l2.636-5.933,1.828.479Zm.613-36.961a1.808,1.808,0,0,0-.519,2.284l2.653,5.108-5.646,1.1a1.8,1.8,0,0,0-1.466,1.836l.18,5.764-5.573-1.459a1.807,1.807,0,0,0-2.116,1.017l-2.342,5.271-4.388-3.734a1.806,1.806,0,0,0-2.35,0l-4.389,3.734-2.342-5.271a1.8,1.8,0,0,0-1.652-1.078,1.827,1.827,0,0,0-.464.06l-5.573,1.459.18-5.763a1.8,1.8,0,0,0-1.465-1.836l-5.646-1.1L113.013,229a1.806,1.806,0,0,0-.52-2.285l-4.612-3.464,4.612-3.453a1.807,1.807,0,0,0,.522-2.286l-2.653-5.106,5.645-1.1a1.805,1.805,0,0,0,1.467-1.836l-.18-5.763,5.573,1.459a1.805,1.805,0,0,0,2.115-1.018l2.342-5.271,4.389,3.734a1.8,1.8,0,0,0,2.349,0l4.389-3.734,2.343,5.274a1.806,1.806,0,0,0,2.114,1.016l5.573-1.459-.18,5.763a1.8,1.8,0,0,0,1.465,1.836l5.647,1.1-2.653,5.106a1.808,1.808,0,0,0,.522,2.286l4.61,3.453Z" transform="translate(0 -125.433)"/>
      <path id="Path_3" data-name="Path 3" d="M310.833,252.516a17.543,17.543,0,1,0,17.543,17.543A17.543,17.543,0,0,0,310.833,252.516Zm0,31.794a14.249,14.249,0,1,1,14.249-14.249A14.249,14.249,0,0,1,310.833,284.31Z" transform="translate(-177.948 -172.237)"/>
    </g>
    <g id="Group_1" data-name="Group 1" transform="translate(-71 8)">
      <line id="Line_1" data-name="Line 1" x2="5.999" y2="5.999" transform="translate(2283.5 -2.215)" fill="none" stroke="#000" stroke-width="3"/>
      <line id="Line_2" data-name="Line 2" y1="10.284" x2="10.284" transform="translate(2288.642 -6.5)" fill="none" stroke="#000" stroke-width="3"/>
    </g>
  </g>
</svg>
