<svg xmlns="http://www.w3.org/2000/svg" width="29.709" height="29.709" viewBox="0 0 29.709 29.709">
  <g id="instagram" transform="translate(-399.448 -216.676)">
    <g id="Group_15" data-name="Group 15" transform="translate(414.291 223.905)">
      <path id="Path_5" data-name="Path 5" d="M0,0A7.614,7.614,0,0,0-7.614,7.614,7.62,7.62,0,0,0,0,15.252,7.626,7.626,0,0,0,7.638,7.614,7.62,7.62,0,0,0,0,0M0,12.57A4.927,4.927,0,0,1-4.932,7.638,4.933,4.933,0,0,1,0,2.682,4.938,4.938,0,0,1,4.956,7.638,4.933,4.933,0,0,1,0,12.57" fill="#fff"/>
    </g>
    <g id="Group_16" data-name="Group 16" transform="translate(424.02 223.609)">
      <path id="Path_6" data-name="Path 6" d="M0,0A1.779,1.779,0,0,1-1.795,1.773,1.775,1.775,0,0,1-3.568,0,1.779,1.779,0,0,1-1.795-1.795,1.784,1.784,0,0,1,0,0" fill="#fff"/>
    </g>
    <g id="Group_17" data-name="Group 17" transform="translate(429.066 225.405)">
      <path id="Path_7" data-name="Path 7" d="M0,0A10.953,10.953,0,0,0-.682-3.614,7.2,7.2,0,0,0-2.409-6.229,7.214,7.214,0,0,0-5.023-7.956a10.962,10.962,0,0,0-3.614-.681c-1.592-.069-2.092-.092-6.138-.092-4.023,0-4.523.023-6.114.092a10.962,10.962,0,0,0-3.614.681A7.493,7.493,0,0,0-27.14-6.229a7.137,7.137,0,0,0-1.7,2.615A10.982,10.982,0,0,0-29.526,0c-.092,1.591-.092,2.091-.092,6.138,0,4.023,0,4.522.092,6.114a10.987,10.987,0,0,0,.681,3.614,7.417,7.417,0,0,0,1.7,2.637,7.422,7.422,0,0,0,2.637,1.7,10.988,10.988,0,0,0,3.614.681c1.591.069,2.091.091,6.114.091,4.046,0,4.546-.022,6.138-.091a10.988,10.988,0,0,0,3.614-.681A7.629,7.629,0,0,0-.682,15.866,10.959,10.959,0,0,0,0,12.252c.068-1.592.091-2.091.091-6.114C.091,2.091.068,1.591,0,0M-2.659,12.138a8.214,8.214,0,0,1-.523,2.751A4.92,4.92,0,0,1-6,17.707a8.188,8.188,0,0,1-2.751.523c-1.568.068-2.046.068-6.024.068-3.954,0-4.432,0-6-.068a8.182,8.182,0,0,1-2.751-.523,4.283,4.283,0,0,1-1.7-1.114,4.438,4.438,0,0,1-1.114-1.7,8.188,8.188,0,0,1-.523-2.751c-.069-1.568-.091-2.046-.091-6,0-3.978.022-4.456.091-6.024a8.188,8.188,0,0,1,.523-2.751,4.438,4.438,0,0,1,1.114-1.7,4.272,4.272,0,0,1,1.7-1.114,8.182,8.182,0,0,1,2.751-.523c1.568-.068,2.046-.068,6-.068,3.978,0,4.456,0,6.024.068A8.188,8.188,0,0,1-6-5.455,4.438,4.438,0,0,1-4.3-4.341a4.449,4.449,0,0,1,1.114,1.7A8.214,8.214,0,0,1-2.659.114c.068,1.568.068,2.046.068,6.024,0,3.954,0,4.432-.068,6" fill="#fff"/>
    </g>
  </g>
</svg>
