<svg xmlns="http://www.w3.org/2000/svg" width="29.391" height="28.095" viewBox="0 0 29.391 28.095">
  <g id="linkedin" transform="translate(-841.093 -294.677)">
    <path id="Path_8" data-name="Path 8" d="M0,0A3.285,3.285,0,0,1-3.569,3.273h-.046A3.257,3.257,0,0,1-7.092,0,3.285,3.285,0,0,1-3.523-3.273,3.271,3.271,0,0,1,0,0" transform="translate(848.185 297.95)" fill="#fff"/>
    <path id="Path_10" data-name="Path 10" d="M178.457-21.3h6.319V-2.338h-6.319Z" transform="translate(663 325.11)" fill="#fff"/>
    <path id="Path_11" data-name="Path 11" d="M0,0S.091-17.185,0-18.957H6.3v2.682a6.268,6.268,0,0,1,5.683-3.137c4.16,0,7.252,2.728,7.252,8.547V0h-6.3V-10.138c0-2.546-.909-4.3-3.183-4.3A3.468,3.468,0,0,0,6.5-12.116a4.343,4.343,0,0,0-.2,1.524V0Z" transform="translate(851.253 322.771)" fill="#fff"/>
  </g>
</svg>
