<svg xmlns="http://www.w3.org/2000/svg" width="150" height="150" viewBox="0 0 150 150">
  <g id="loan" transform="translate(-2853 -201)">
    <rect id="Rectangle_3" data-name="Rectangle 3" width="150" height="150" transform="translate(2853 201)" fill="none"/>
    <g id="secured-loan" transform="translate(2880 214)">
      <path id="Path_5" data-name="Path 5" d="M63.683,63.568a7.107,7.107,0,0,0,.437-7.721A7.04,7.04,0,0,0,69.143,49.7a8.329,8.329,0,0,0,6.324-8.058V27.069a6.247,6.247,0,0,0-6.247-6.247H56.829a23.1,23.1,0,0,1,5.535-13.1,2.082,2.082,0,0,0-1.472-3.554H50.328A5.455,5.455,0,0,0,42.59.575L34.974,4.383a2.082,2.082,0,0,0-.548,3.332,23.071,23.071,0,0,1,5.541,13.108H32.781a7.288,7.288,0,0,0-7.288,7.288,7.211,7.211,0,0,0,.933,3.5,7.238,7.238,0,0,0,0,13.826,7.342,7.342,0,0,0-.933,3.084,7.059,7.059,0,0,0,1.98,5.281,7.775,7.775,0,0,0,3.146,1.98,7.232,7.232,0,0,0-.952,3.123,7.038,7.038,0,0,0,1.955,5.287c.019.019.04.031.056.05A32.185,32.185,0,0,0,13,92.659c0,17.8,15.879,32.274,35.4,32.274s35.4-14.478,35.4-32.274A32.231,32.231,0,0,0,63.683,63.568Zm-26.4-1.1a3.617,3.617,0,0,1-2.619-1.135,2.915,2.915,0,0,1-.833-2.184,3.1,3.1,0,0,1,.906-2.018,3.146,3.146,0,0,1,2.213-.91H57.768a3.123,3.123,0,0,1,0,6.247ZM69.22,24.987A2.082,2.082,0,0,1,71.3,27.069V41.644a4.164,4.164,0,0,1-8.329,0V27.069a2.082,2.082,0,0,1,2.082-2.082ZM39.157,6.948l5.3-2.649a1.326,1.326,0,0,1,1.864,1.151v4.96a2.082,2.082,0,1,0,4.164,0V8.329h6.247a27.6,27.6,0,0,0-4.069,12.493H44.131A27.652,27.652,0,0,0,39.157,6.948ZM32.781,24.987H59.192a6.176,6.176,0,0,0-.383,2.082v4.164H32.781a3.123,3.123,0,1,1,0-6.247ZM25.493,38.521A3.123,3.123,0,0,1,28.617,35.4H58.809v6.247H28.617A3.123,3.123,0,0,1,25.493,38.521Zm4.164,10.23a3.123,3.123,0,0,1,3.123-2.942H59.967a8.312,8.312,0,0,0,5,3.84,3.082,3.082,0,0,1-3.032,2.407H33.114A3.617,3.617,0,0,1,30.5,50.925a2.951,2.951,0,0,1-.843-2.174ZM48.4,120.769c-17.222,0-31.233-12.61-31.233-28.11,0-11.413,7.873-21.845,19.619-26.08.167.012.329.052.5.052h3.748a15.479,15.479,0,0,0-2.684,3.009,2.082,2.082,0,0,0,3.465,2.311,17.031,17.031,0,0,1,7.007-5.32h1.249a16.947,16.947,0,0,1,7.009,5.32,2.082,2.082,0,1,0,3.465-2.311,15.5,15.5,0,0,0-2.688-3.009,7.187,7.187,0,0,0,1.649-.223C71.56,70.531,79.631,81,79.631,92.659,79.631,108.159,65.62,120.769,48.4,120.769Z" transform="translate(0 0)"/>
      <path id="Path_6" data-name="Path 6" d="M33.246,49.411a2.082,2.082,0,1,1,1.805-3.123,2.082,2.082,0,0,0,3.6-2.082A6.232,6.232,0,0,0,35.328,41.5v-.416a2.082,2.082,0,1,0-4.164,0v.383a6.232,6.232,0,0,0,2.082,12.11A2.082,2.082,0,1,1,31.44,56.7a2.082,2.082,0,0,0-3.6,2.082,6.232,6.232,0,0,0,3.332,2.707V61.9a2.082,2.082,0,1,0,4.164,0v-.383a6.232,6.232,0,0,0-2.086-12.11Z" transform="translate(15.152 42.207)"/>
    </g>
  </g>
</svg>
