<svg xmlns="http://www.w3.org/2000/svg" width="150" height="150" viewBox="0 0 150 150">
  <g id="price-tag" transform="translate(-2352 -29)">
    <rect id="Rectangle_2" data-name="Rectangle 2" width="150" height="150" transform="translate(2352 29)" fill="none"/>
    <path id="price-tag-2" data-name="price-tag" d="M120.125.6a2.035,2.035,0,0,0-2.881,0L109.69,8.151H62.247L2.6,68.285a7.192,7.192,0,0,0,0,10.168l41.7,41.7a7.2,7.2,0,0,0,10.188-.02l58.076-59.645V11.032l7.554-7.554A2.035,2.035,0,0,0,120.125.6ZM108.5,58.836l-56.9,58.439a3.119,3.119,0,0,1-4.405,0l-41.7-41.7a3.121,3.121,0,0,1,.006-4.412L63.946,12.226h41.669l-9.848,9.848a10.219,10.219,0,1,0,2.881,2.881l9.848-9.848ZM96.27,30.566a6.113,6.113,0,1,1-6.113-6.113,6.042,6.042,0,0,1,2.618.613l-4.059,4.059A2.037,2.037,0,1,0,91.6,32.006l4.059-4.059A6.013,6.013,0,0,1,96.27,30.566Z" transform="translate(2366.501 43)"/>
  </g>
</svg>
