<svg xmlns="http://www.w3.org/2000/svg" width="150" height="150" viewBox="0 0 150 150">
  <g id="storehouse" transform="translate(-3799 -48)">
    <rect id="Rectangle_6" data-name="Rectangle 6" width="150" height="150" transform="translate(3799 48)" fill="none"/>
    <g id="wholesale" transform="translate(3810.995 60)">
      <path id="Path_13" data-name="Path 13" d="M122,31.786,67.774,1.35a10.514,10.514,0,0,0-10.307,0L3.239,31.786A6.311,6.311,0,0,0,4.628,43.377a6.933,6.933,0,0,0,1.724.231,6.093,6.093,0,0,0,3.071-.821l53.2-29.848,53.2,29.848a6.31,6.31,0,1,0,6.184-11Zm-1.262,6.541a2.1,2.1,0,0,1-2.86.8L64.723,9.258a4.205,4.205,0,0,0-4.207,0L7.362,39.128a2.12,2.12,0,0,1-2.1-3.681L59.528,5.009a6.309,6.309,0,0,1,6.184,0l54.227,30.438a2.1,2.1,0,0,1,.8,2.881Zm0,0" transform="translate(0)"/>
      <path id="Path_14" data-name="Path 14" d="M40.248,179.77a2.1,2.1,0,0,0-2.1,2.1V256.61a2.1,2.1,0,0,0,4.207,0V181.873A2.1,2.1,0,0,0,40.248,179.77Zm0,0" transform="translate(-28.111 -132.503)"/>
      <path id="Path_15" data-name="Path 15" d="M424.248,179.77a2.1,2.1,0,0,0-2.1,2.1V256.61a2.1,2.1,0,0,0,4.207,0V181.873A2.1,2.1,0,0,0,424.248,179.77Zm0,0" transform="translate(-311.146 -132.503)"/>
      <path id="Path_16" data-name="Path 16" d="M156.387,168.012H72.248a2.1,2.1,0,0,0-2.1,2.1v77.828a2.1,2.1,0,0,0,4.207,0V180.633h79.931v67.311a2.1,2.1,0,1,0,4.207,0V170.115A2.1,2.1,0,0,0,156.387,168.012Zm-82.035,8.414v-4.207h79.931v4.207Zm0,0" transform="translate(-51.698 -123.836)"/>
      <path id="Path_17" data-name="Path 17" d="M201.9,108.219a2.1,2.1,0,1,0,0-4.207H168.248a2.1,2.1,0,0,0-2.1,2.1v8.414a2.1,2.1,0,0,0,2.1,2.1H201.9a2.1,2.1,0,1,0,0-4.207H170.352v-4.207Zm0,0" transform="translate(-122.456 -76.664)"/>
      <path id="Path_18" data-name="Path 18" d="M171.559,290.5h-2.1V267.357a2.1,2.1,0,0,0-2.1-2.1h-6.31V242.115a2.1,2.1,0,0,0-2.1-2.1H129.49a2.1,2.1,0,0,0-2.1,2.1v10.517H116.869a2.1,2.1,0,0,0-2.1,2.1v10.517h-6.31a2.1,2.1,0,0,0-2.1,2.1V290.5h-2.1a2.1,2.1,0,0,0-2.1,2.1v8.414a2.1,2.1,0,0,0,4.207,0V294.7h6.31v6.31a2.1,2.1,0,0,0,4.207,0V294.7h4.207v6.31a2.1,2.1,0,0,0,4.207,0V294.7h6.31v6.31a2.1,2.1,0,0,0,4.207,0V294.7h4.207v6.31a2.1,2.1,0,0,0,4.207,0V294.7h6.31v6.31a2.1,2.1,0,0,0,4.207,0V294.7h4.207v6.31a2.1,2.1,0,0,0,4.207,0V294.7h6.31v6.31a2.1,2.1,0,0,0,4.207,0V292.6A2.1,2.1,0,0,0,171.559,290.5ZM150.525,269.46h4.207v4.207h-4.207Zm-4.207-25.242v4.207h-4.207v-4.207Zm-14.724,0h6.31v6.31a2.1,2.1,0,0,0,2.1,2.1h8.414a2.1,2.1,0,0,0,2.1-2.1v-6.31h6.31v21.035H131.593ZM121.076,269.46h4.207v4.207h-4.207Zm-2.1-12.621h8.414v8.414h-8.414ZM110.559,290.5V269.46h6.31v6.31a2.1,2.1,0,0,0,2.1,2.1h8.414a2.1,2.1,0,0,0,2.1-2.1v-6.31h6.31V290.5Zm29.448,0V269.46h6.31v6.31a2.1,2.1,0,0,0,2.1,2.1h8.414a2.1,2.1,0,0,0,2.1-2.1v-6.31h6.31V290.5Zm0,0" transform="translate(-75.284 -176.905)"/>
    </g>
  </g>
</svg>
