<svg xmlns="http://www.w3.org/2000/svg" width="150" height="150" viewBox="0 0 150 150">
  <g id="store" transform="translate(-3452 -48)">
    <rect id="Rectangle_5" data-name="Rectangle 5" width="150" height="150" transform="translate(3452 48)" fill="none"/>
    <g id="shop" transform="translate(3468 64)">
      <g id="Group_4" data-name="Group 4" transform="translate(93.765 98.384)">
        <g id="Group_3" data-name="Group 3">
          <path id="Path_9" data-name="Path 9" d="M408.309,426a2.309,2.309,0,1,0,2.31,2.309A2.31,2.31,0,0,0,408.309,426Z" transform="translate(-406 -426)"/>
        </g>
      </g>
      <g id="Group_6" data-name="Group 6">
        <g id="Group_5" data-name="Group 5">
          <path id="Path_10" data-name="Path 10" d="M103,10.954V6.928A6.936,6.936,0,0,0,96.074,0h-73.9a6.936,6.936,0,0,0-6.928,6.928v4.026C.179,38.775,0,37.949,0,39.259V43.88a11.5,11.5,0,0,0,6,9.843v62.213a2.31,2.31,0,0,0,2.309,2.309H109.931a2.31,2.31,0,0,0,2.309-2.309V53.723a11.623,11.623,0,0,0,6-9.843V39.259C118.244,37.935,117.92,38.5,103,10.954Zm9.027,26H97.739l-7.7-23.095h9.287ZM79.908,41.571H93.765V43.88a6.928,6.928,0,0,1-13.857,0Zm-.353-4.619L75.706,13.857h9.466l7.7,23.095ZM19.861,6.928a2.312,2.312,0,0,1,2.309-2.309h73.9a2.312,2.312,0,0,1,2.309,2.309V9.238H19.861ZM75.289,41.571V43.88a6.928,6.928,0,1,1-13.857,0V41.571ZM61.432,36.952V13.857h9.591l3.849,23.095Zm-18.059,0,3.849-23.095h9.591V36.952Zm13.44,4.619V43.88a6.928,6.928,0,1,1-13.857,0V41.571ZM25.375,36.952l7.7-23.095h9.466L38.69,36.952Zm12.962,4.619V43.88a6.928,6.928,0,0,1-13.857,0V41.571ZM18.917,13.857H28.2l-7.7,23.095H6.215ZM4.619,43.88V41.571H19.861V43.88c0,3.626-3.633,6.928-7.621,6.928a7.741,7.741,0,0,1-3.018-.633A7.183,7.183,0,0,1,4.619,43.88Zm42.956,69.746H24.48V93.765H47.575Zm0-24.48H24.48V69.284H47.575Zm60.046,24.48H52.194V66.975a2.31,2.31,0,0,0-2.309-2.309H22.171a2.31,2.31,0,0,0-2.309,2.309v46.651H10.624V55.314a12,12,0,0,0,1.617.113,12.73,12.73,0,0,0,8.429-3.3,12.486,12.486,0,0,0,1.388-1.481,11.533,11.533,0,0,0,18.589.158,11.535,11.535,0,0,0,18.476,0,11.535,11.535,0,0,0,18.476,0,11.533,11.533,0,0,0,18.589-.158,12.5,12.5,0,0,0,1.388,1.481,12.73,12.73,0,0,0,8.429,3.3,11.95,11.95,0,0,0,1.617-.112Zm6-69.746a7.188,7.188,0,0,1-4.775,6.368,7.673,7.673,0,0,1-2.847.56c-3.989,0-7.621-3.3-7.621-6.928V41.571h15.243Z"/>
        </g>
      </g>
      <g id="Group_8" data-name="Group 8" transform="translate(61.432 64.665)">
        <g id="Group_7" data-name="Group 7">
          <path id="Path_11" data-name="Path 11" d="M305.261,304.48h-2.309V282.309A2.31,2.31,0,0,0,300.642,280H272.928a2.31,2.31,0,0,0-2.309,2.309V304.48h-2.309a2.309,2.309,0,1,0,0,4.619h36.952a2.309,2.309,0,1,0,0-4.619Zm-6.928,0H275.238V284.619h23.095Z" transform="translate(-266 -280)"/>
        </g>
      </g>
      <g id="Group_10" data-name="Group 10" transform="translate(66.051 98.384)">
        <g id="Group_9" data-name="Group 9">
          <path id="Path_12" data-name="Path 12" d="M306.785,426H288.309a2.309,2.309,0,1,0,0,4.619h18.476a2.309,2.309,0,1,0,0-4.619Z" transform="translate(-286 -426)"/>
        </g>
      </g>
    </g>
  </g>
</svg>
