<svg xmlns="http://www.w3.org/2000/svg" width="32.346" height="22.663" viewBox="0 0 32.346 22.663">
  <g id="youtube" transform="translate(31.687 3.546)">
    <path id="Path_4" data-name="Path 4" d="M0,0A4.062,4.062,0,0,0-2.864-2.841c-2.523-.7-12.661-.7-12.661-.7s-10.115,0-12.638.682A4.132,4.132,0,0,0-31.027,0a43.33,43.33,0,0,0-.66,7.8,42.853,42.853,0,0,0,.66,7.774,4.06,4.06,0,0,0,2.864,2.841c2.545.7,12.638.7,12.638.7s10.138,0,12.661-.682A4.062,4.062,0,0,0,0,15.593,43.048,43.048,0,0,0,.659,7.819,41.454,41.454,0,0,0,0,0M-18.73,12.638v-9.7L-10.32,7.8Z" fill="#fff"/>
  </g>
</svg>
